<?xml version="1.0" encoding="utf-8"?>
<!-- Generator: Adobe Illustrator 22.0.1, SVG Export Plug-In . SVG Version: 6.00 Build 0)  -->
<svg version="1.1" id="Capa_1" xmlns="http://www.w3.org/2000/svg" xmlns:xlink="http://www.w3.org/1999/xlink" x="0px" y="0px"
	 viewBox="0 0 900.3 185.5" enable-background="new 0 0 900.3 185.5" xml:space="preserve">
<g>
	<path fill="#FFFFFF" d="M848.1,138.2H782l-20.3,44.6h-31.3l84.9-180l84.9,180h-31.3L848.1,138.2z M836.6,112.3l-21.3-46l-21.3,46
		H836.6z"/>
	<path fill="#FFFFFF" d="M679.3,182.8l-48.9-68.3c-3.3,1.8-6.3,3.8-9.2,6.1c-2.9,2.3-5.5,5-7.9,8.2c-1.5,2.1-2.6,4.6-3.4,7.5
		c-0.8,2.9-1.4,5.9-1.8,9.1c-0.4,3.1-0.7,6.2-0.7,9.2c-0.1,3-0.1,5.4-0.1,7.4v20.8h-29.6V2.8h66.8c6,0.5,11.5,1.5,16.3,2.9
		c4.8,1.5,9,3.2,12.5,5.2s6.5,4.2,9.1,6.5c2.5,2.3,4.6,4.6,6.2,6.7c4.2,5.7,7.1,12.1,8.6,19.3s1.3,14.7-0.5,22.4
		c-1.3,5.5-3.3,10.3-6,14.3s-5.7,7.5-9.2,10.4c-3.4,2.9-7.1,5.4-10.9,7.4c-3.8,2-7.7,3.8-11.6,5.2l57,79.7L679.3,182.8L679.3,182.8z
		 M607.1,93.9c5.5-3.9,11.1-7,16.6-9.3s10.8-4.4,15.9-6.2c4.6-1.6,8.4-3.1,11.6-4.4c3.2-1.3,5.8-2.7,7.8-4.1c2-1.5,3.7-3.1,4.9-4.8
		c1.2-1.8,2.2-4,2.8-6.5c0.7-2.4,0.9-5.2,0.9-8.4c-0.1-3.1-1.2-6.1-3.3-8.8c-3.9-5.3-11.1-8.4-21.5-9.2h-35.7v63V93.9z"/>
	<path fill="#FFFFFF" d="M485.2,185.5c-8.8,0-17-1.6-24.6-4.9c-7.6-3.3-14.3-7.7-20-13.4c-5.7-5.6-10.2-12.2-13.5-19.8
		s-5-15.7-5-24.3V2.8h29.4v120.1c0,4.7,0.9,9,2.6,13.1s4.1,7.6,7.2,10.6s6.7,5.3,10.7,7.1c4.1,1.8,8.4,2.6,13.1,2.6
		c4.5,0,8.9-0.9,13-2.6c4.1-1.8,7.7-4.1,10.7-7.1s5.4-6.5,7.2-10.6s2.7-8.5,2.7-13.1V2.8h29.4v120.3c0,8.7-1.7,16.8-5,24.3
		c-3.3,7.6-7.8,14.1-13.5,19.8c-5.7,5.6-12.4,10.1-20,13.4C501.9,183.9,493.8,185.5,485.2,185.5z"/>
	<g>
		<g>
			<polygon fill="#FFFFFF" points="274.2,82.3 274.2,49.2 407.3,182.8 374.4,182.8 			"/>
			<polygon fill="#FFFFFF" points="274.2,132.3 274.2,99.2 357.5,182.8 324.6,182.8 			"/>
			<polygon fill="#FFFFFF" points="274.2,149.3 307.7,182.8 274.2,182.8 			"/>
		</g>
		<g>
			<g>
				<polygon fill="#9C9B9B" points="323.7,98.9 317.6,92.8 301.2,109.3 307.3,115.4 				"/>
				<polygon fill="#9C9B9B" points="276.3,134.3 282.4,140.4 298.8,123.9 292.7,117.8 				"/>
			</g>
			<g>
				<polygon fill="#9C9B9B" points="276.3,84.3 282.4,90.4 298.8,73.9 292.7,67.8 				"/>
			</g>
		</g>
		<g>
			<polygon fill="#FFFFFF" points="274.2,103.3 274.2,136.4 407.3,2.8 374.4,2.8 			"/>
			<polygon fill="#FFFFFF" points="274.2,53.3 274.2,86.4 357.5,2.8 324.6,2.8 			"/>
			<polygon fill="#FFFFFF" points="274.2,36.3 307.7,2.8 274.2,2.8 			"/>
		</g>
	</g>
	<path fill="#FFFFFF" d="M176.5,29.5v41.2h52.2v26h-52.2v59.4h68.3v26.7h-98V96.7h-16.1v-26h16.2V2.8h98v26.7H176.5z"/>
	<path fill="#FFFFFF" d="M57.2,185.5c-7.7,0-15.1-1.4-22.1-4.3c-7-2.9-13.2-7.1-18.5-12.7c-5.3-5.4-9.4-11.6-12.2-18.5
		s-4.2-14.2-4.2-21.9h29.7c0,4,0.7,7.7,2.2,11.1c1.4,3.4,3.4,6.4,5.8,8.9c2.4,2.5,5.3,4.4,8.6,5.9c3.3,1.4,6.9,2.2,10.7,2.2
		c2.6,0,5.4-0.3,8.6-1c3.1-0.6,6.1-1.8,8.9-3.5s5.2-4,7.1-7.1c1.9-3,2.9-6.9,2.9-11.7c0-1.3-0.1-3.1-0.4-5.5
		c-0.2-2.4-1.4-5.1-3.4-8.1s-5.3-6.3-9.8-9.8s-11-7-19.3-10.5c-4.8-2.1-9.9-4.5-15.1-7.4s-10.1-6.3-14.5-10.3s-8.1-8.7-11.1-14.1
		S6.5,55.6,6.4,48.5c-0.2-6.2,0.9-12.2,3.1-17.9c2.3-5.7,5.6-10.8,10.1-15.3C24.5,10.4,30,6.7,36.5,4C42.9,1.4,49.8,0.1,57,0.1
		c6.9,0,13.5,1.3,19.7,3.9s11.6,6.2,16.1,10.8c4.5,4.5,8.1,9.8,10.7,15.9c2.7,6.1,4,12.5,4,19.4H77.8c0-2.9-0.5-5.5-1.6-8
		c-1-2.5-2.5-4.6-4.5-6.5c-1.9-1.8-4.1-3.3-6.6-4.4c-2.5-1.1-5.2-1.7-8.1-1.7c-6.6,0-11.8,2-15.7,6c-2.7,2.4-4.1,6.5-4.1,12.2
		c0,1,0.1,2.2,0.4,3.7c0.2,1.5,1.2,3.3,2.8,5.5s4.2,4.5,7.7,7.1c3.5,2.6,8.6,5.3,15.2,8.4c10,4.5,18.3,8.9,25,13.3s12.1,9,16.2,13.8
		s7,9.9,8.8,15.4s2.7,11.5,2.7,18.1c0,5.3-0.6,10-1.8,14.2c-1.2,4.2-2.7,8-4.6,11.2c-1.9,3.3-3.9,6.1-6,8.6
		c-2.2,2.5-4.3,4.5-6.4,6.1C86.8,181.4,73.5,185.5,57.2,185.5z"/>
</g>
</svg>
